<svg xmlns="http://www.w3.org/2000/svg" enable-background="new 0 0 60 60" viewBox="0 0 60 60" id="google-maps"><path fill="#fff" d="M50,60H10C4.477,60,0,55.523,0,50V10C0,4.477,4.477,0,10,0h40c5.523,0,10,4.477,10,10v40
		C60,55.523,55.523,60,50,60z"></path><g><path fill="#ffa96b" d="M20.967,42.738c-0.036,0-0.072-0.002-0.108-0.006c-0.301-0.033-0.571-0.201-0.734-0.456l-5.684-8.902
			c-0.036-0.057-0.066-0.116-0.09-0.178c-0.53-0.847-0.967-1.683-1.331-2.546c-0.052-0.123-0.078-0.255-0.078-0.389
			c0-0.266,0.105-0.531,0.293-0.718l11.394-11.381c0.014-0.015,0.028-0.029,0.043-0.043c0.394-0.387,1.025-0.386,1.413,0.005
			c0.389,0.391,0.388,1.023-0.002,1.413l-0.039,0.038c-1.025,1.034-1.589,2.41-1.589,3.88C24.454,26.512,26.942,29,30,29
			c1.469,0,2.843-0.562,3.876-1.585l0.042-0.042c0.39-0.39,1.022-0.391,1.412-0.002c0.392,0.389,0.394,1.021,0.006,1.413
			c-0.018,0.017-0.034,0.034-0.051,0.05L21.674,42.445C21.485,42.634,21.23,42.738,20.967,42.738z M16.237,32.472l4.902,7.679
			l9.157-9.157C30.198,30.998,30.1,31,30,31c-4.161,0-7.546-3.385-7.546-7.545c0-0.101,0.002-0.2,0.006-0.3l-7.328,7.32
			c0.29,0.61,0.625,1.211,1.017,1.823C16.184,32.353,16.213,32.412,16.237,32.472z"></path><path fill="#ff6684" d="M13.941,31.251c-0.062,0-0.125-0.006-0.187-0.018c-0.325-0.062-0.599-0.28-0.73-0.584
			c-0.981-2.258-1.479-4.678-1.479-7.195c0-4.927,1.917-9.563,5.397-13.055c0.188-0.188,0.441-0.294,0.707-0.294h0.001
			c0.266,0,0.52,0.105,0.707,0.293l7.724,7.724c0.188,0.188,0.293,0.442,0.293,0.708c0,0.265-0.105,0.52-0.293,0.707L14.648,30.958
			C14.459,31.147,14.204,31.251,13.941,31.251z M17.674,12.542c-2.669,3.016-4.128,6.854-4.128,10.913
			c0,1.727,0.263,3.402,0.781,4.997l9.633-9.623L17.674,12.542z"></path><path fill="#78a0f0" d="M25.375,19.829c-0.265,0-0.52-0.105-0.707-0.293l-7.724-7.724c-0.188-0.188-0.293-0.442-0.293-0.708
			c0-0.265,0.106-0.52,0.294-0.708C20.438,6.917,25.073,5,30,5c2.501,0,4.923,0.493,7.2,1.466c0.306,0.13,0.526,0.403,0.589,0.729
			c0.063,0.326-0.039,0.662-0.274,0.896L26.082,19.536C25.895,19.724,25.641,19.829,25.375,19.829z M19.088,11.127l6.287,6.287
			l9.627-9.637C33.396,7.261,31.719,7,30,7C25.941,7,22.104,8.458,19.088,11.127z"></path><path fill="#78a0f0" d="M34.625,29.08c-0.257,0-0.514-0.098-0.709-0.295c-0.389-0.391-0.388-1.023,0.002-1.413l0.038-0.037
			c1.025-1.034,1.59-2.41,1.59-3.881c0-3.058-2.488-5.545-5.546-5.545c-1.471,0-2.846,0.563-3.879,1.588l-0.039,0.038
			c-0.39,0.391-1.021,0.391-1.412,0.002c-0.392-0.389-0.394-1.021-0.006-1.413c0.015-0.015,0.029-0.029,0.044-0.044L36.101,6.679
			c0.287-0.289,0.72-0.372,1.096-0.215c4.378,1.845,7.948,5.416,9.795,9.795c0.157,0.375,0.073,0.809-0.215,1.096L35.372,28.747
			c-0.014,0.015-0.028,0.029-0.043,0.043C35.134,28.983,34.879,29.08,34.625,29.08z M30,15.909c4.161,0,7.546,3.385,7.546,7.545
			c0,0.101-0.002,0.2-0.006,0.3l7.336-7.328c-1.615-3.422-4.426-6.233-7.848-7.848L29.7,15.915C29.8,15.911,29.899,15.909,30,15.909
			z"></path><path fill="#53d0a6" d="M30,55c-1.042,0-2.001-0.5-2.594-1.343c-0.034-0.038-0.065-0.079-0.093-0.123l-7.189-11.258
			c-0.253-0.396-0.196-0.914,0.136-1.245L45.362,15.94c0.235-0.235,0.574-0.338,0.896-0.275c0.326,0.063,0.6,0.284,0.73,0.589
			c0.972,2.276,1.465,4.698,1.465,7.2c-0.001,2.168-0.376,4.289-1.116,6.305c-0.189,0.519-0.76,0.786-1.283,0.595
			c-0.519-0.19-0.784-0.765-0.594-1.283c0.658-1.795,0.992-3.685,0.993-5.617c0-1.719-0.261-3.395-0.776-5.001L22.242,41.877
			l6.689,10.475c0.028,0.034,0.055,0.069,0.079,0.107c0.432,0.677,1.547,0.677,1.979,0c0.024-0.039,0.052-0.076,0.081-0.11
			l12.726-19.928c0.296-0.466,0.915-0.602,1.381-0.305s0.602,0.916,0.305,1.381L32.687,53.534c-0.028,0.045-0.061,0.087-0.095,0.126
			C31.998,54.502,31.04,55,30,55z"></path><path fill="#a4e4b3" d="M29.813,49.996H29.8l-5.007-7.84l19.633-19.624c0.019,0.306,0.028,0.613,0.028,0.922
			c0,2.762-0.788,5.443-2.28,7.755l-2.986,4.627h0.054l-9.237,14.458L29.813,49.996z"></path></g></svg>